# xmcd CD database file
#
# Track frame offsets:
#	150
#	15209
#	32326
#	43795
#	56436
#	74326
#	88564
#	103699
#	113228
#	124910
#	137742
#	150044
#	168658
#	187469
#
# Disc length: 2658 seconds
#
# Revision: 0
# Processed by: cddbd v1.5.2PL0 Copyright (c) Steve Scherf et al.
# Submitted via: CDex 1.51
#
DISCID=b40a600e
DTITLE=Dave Denny - Glad Rag Doll
DYEAR=2017
DGENRE=Blues
TTITLE0=Walking down the road feeling bad
TTITLE1=Speed of the sound of lonelines
TTITLE2=Wild wood boys
TTITLE3=Green Green rocky road
TTITLE4=Billy
TTITLE5=Charing Cross road
TTITLE6=Halp me make it through the night
TTITLE7=Red Rose Rag
TTITLE8=Nobody knows the way I feel
TTITLE9=Roy Rogers and Simone
TTITLE10=I don`t know 
TTITLE11=Don`t think twice
TTITLE12=Tennessee Waltz
TTITLE13=Glad Rag Doll
EXTD=YEAR: 2017
EXTT0=
EXTT1=
EXTT2=
EXTT3=
EXTT4=
EXTT5=
EXTT6=
EXTT7=
EXTT8=
EXTT9=
EXTT10=
EXTT11=
EXTT12=
EXTT13=
PLAYORDER=
